<svg width="38px" height="39px" viewBox="0 0 38 39" version="1.1" xmlns="http://www.w3.org/2000/svg" xmlns:xlink="http://www.w3.org/1999/xlink">
    <!-- Generator: Sketch 43.1 (39012) - http://www.bohemiancoding.com/sketch -->
    <desc>Created with Sketch.</desc>
    <defs></defs>
    <g id="Search-Home" stroke="none" stroke-width="1" fill="none" fill-rule="evenodd">
        <g id="Desktop-HD" transform="translate(-1119.000000, -493.000000)" stroke="#979797" fill="#939393">
            <g id="search-input" transform="translate(263.000000, 460.000000)">
                <path d="M872.146405,62.2791497 C865.06833,62.2791497 859.330476,56.4845264 859.330476,49.3251016 C859.330476,42.1656768 865.06833,36.3594873 872.146405,36.3594873 C879.22448,36.3594873 884.963459,42.1656768 884.963459,49.3251016 C884.963459,56.4845264 879.22448,62.2791497 872.146405,62.2791497 L872.146405,62.2791497 Z M892.658193,68.9874961 L883.364422,59.5842451 C885.797299,56.8662082 887.29281,53.2807127 887.29281,49.3251016 C887.29281,40.8587058 880.511812,34 872.146405,34 C863.780998,34 857,40.8587058 857,49.3251016 C857,57.7799312 863.780998,64.6386371 872.146405,64.6386371 C875.760837,64.6386371 879.075941,63.3547984 881.679863,61.2150672 L891.010768,70.6530166 C891.466511,71.1156611 892.203576,71.1156611 892.658193,70.6530166 C893.113936,70.2019381 893.113936,69.4501407 892.658193,68.9874961 L892.658193,68.9874961 Z" id="Fill-19"></path>
            </g>
        </g>
    </g>
</svg>